<svg width="506" height="457" viewBox="0 0 506 457" fill="none" xmlns="http://www.w3.org/2000/svg">
<path d="M106.013 75.7704L111.705 79.0728C110.975 78.6478 109.98 78.711 108.859 79.3485L103.167 76.0404C104.271 75.3914 105.283 75.3454 106.013 75.7704Z" fill="#C7DEEB"/>
<path d="M91.6608 110.85L97.6638 118.035L103.356 121.343L97.359 114.152L91.6608 110.85Z" fill="#C7DEEB"/>
<path d="M103.167 76.0403L58.3165 101.885C57.1559 102.639 56.1901 103.656 55.4976 104.854C54.8052 106.052 54.4057 107.396 54.3318 108.777L54.3835 127.729C54.3835 128.981 54.832 129.866 55.5335 130.285L61.226 133.593C60.5015 133.174 60.076 132.284 60.076 131.032L60.0243 112.079C60.0996 110.698 60.4996 109.355 61.1919 108.157C61.8843 106.96 62.8494 105.942 64.009 105.187L108.859 79.3426L103.167 76.0403Z" fill="#C7DEEB"/>
<path d="M108.859 79.3484C111.056 78.0791 112.884 79.0957 112.884 81.6457L112.942 100.598C112.863 101.979 112.461 103.322 111.768 104.519C111.075 105.716 110.11 106.734 108.951 107.49L103.339 110.724L103.368 121.36L97.3705 114.17L64.1125 133.323C61.9045 134.598 60.0875 133.559 60.0875 131.026L60.0358 112.073C60.1111 110.693 60.5111 109.349 61.2034 108.152C61.8957 106.954 62.8609 105.937 64.0205 105.181L108.859 79.3484Z" fill="#DEF3FF"/>
<path d="M393.875 75.7704L388.177 79.0728C388.907 78.6478 389.902 78.711 391.023 79.3485L396.721 76.0404C395.6 75.3914 394.611 75.3454 393.875 75.7704Z" fill="#C7DEEB"/>
<path d="M408.233 110.85L402.23 118.035L396.537 121.343L402.54 114.152L408.233 110.85Z" fill="#C7DEEB"/>
<path d="M396.75 76.0403L441.571 101.885C442.732 102.64 443.698 103.657 444.391 104.854C445.084 106.052 445.485 107.396 445.562 108.777L445.504 127.729C445.504 128.981 445.056 129.866 444.354 130.285L438.662 133.593C439.381 133.174 439.812 132.284 439.812 131.032L439.869 112.079C439.793 110.698 439.392 109.354 438.699 108.157C438.005 106.959 437.039 105.942 435.879 105.187L391.029 79.3426L396.75 76.0403Z" fill="#C7DEEB"/>
<path d="M391.035 79.3484C388.838 78.0791 387.01 79.0957 387.01 81.6457L386.958 100.598C387.034 101.979 387.434 103.322 388.127 104.519C388.819 105.717 389.784 106.734 390.943 107.49L396.555 110.724V121.36L402.558 114.17L435.798 133.34C438.006 134.615 439.823 133.576 439.823 131.043L439.881 112.091C439.804 110.709 439.403 109.366 438.71 108.168C438.017 106.971 437.051 105.954 435.89 105.199L391.035 79.3484Z" fill="#DEF3FF"/>
<path d="M382.594 17.8729L353.941 1.34961L325.289 17.8729V50.9194L353.936 67.4427L382.594 50.9194V17.8729Z" fill="#DEF3FF"/>
<g style="mix-blend-mode:multiply" opacity="0.3">
<path d="M353.936 67.4426L325.289 50.9193V17.8728L353.936 34.3961V67.4426Z" fill="#438BE3"/>
</g>
<g style="mix-blend-mode:multiply" opacity="0.2">
<path d="M353.936 67.4426L382.594 50.9193V17.8728L353.936 34.3961V67.4426Z" fill="#438BE3"/>
</g>
<path d="M453.456 10.1311L435.89 0L418.324 10.1311V30.3932L435.89 40.5242L453.456 30.3932V10.1311Z" fill="#DEF3FF"/>
<g style="mix-blend-mode:multiply" opacity="0.3">
<path d="M435.89 40.5243L418.324 30.3932V10.1311L435.89 20.2622V40.5243Z" fill="#438BE3"/>
</g>
<g style="mix-blend-mode:multiply" opacity="0.2">
<path d="M435.89 40.5243L453.457 30.3932V10.1311L435.89 20.2622V40.5243Z" fill="#438BE3"/>
</g>
<path d="M489.032 73.9556L476.094 66.4951L463.151 73.9556V88.8822L476.094 96.3427L489.032 88.8822V73.9556Z" fill="#DEF3FF"/>
<g style="mix-blend-mode:multiply" opacity="0.3">
<path d="M476.094 96.3427L463.151 88.8822V73.9556L476.094 81.416V96.3427Z" fill="#438BE3"/>
</g>
<g style="mix-blend-mode:multiply" opacity="0.2">
<path d="M476.094 96.3427L489.032 88.8822V73.9556L476.094 81.416V96.3427Z" fill="#438BE3"/>
</g>
<path d="M122.078 17.8729L150.731 1.34961L179.383 17.8729V50.9194L150.731 67.4427L122.078 50.9194V17.8729Z" fill="#DEF3FF"/>
<g style="mix-blend-mode:multiply" opacity="0.3">
<path d="M150.73 67.4426L179.383 50.9193V17.8728L150.73 34.3961V67.4426Z" fill="#438BE3"/>
</g>
<g style="mix-blend-mode:multiply" opacity="0.2">
<path d="M150.731 67.4426L122.078 50.9193V17.8728L150.731 34.3961V67.4426Z" fill="#438BE3"/>
</g>
<path d="M51.2095 10.1311L68.7815 0L86.3477 10.1311V30.3932L68.7815 40.5242L51.2095 30.3932V10.1311Z" fill="#DEF3FF"/>
<g style="mix-blend-mode:multiply" opacity="0.3">
<path d="M68.7815 40.5243L86.3477 30.3932V10.1311L68.7815 20.2622V40.5243Z" fill="#438BE3"/>
</g>
<g style="mix-blend-mode:multiply" opacity="0.2">
<path d="M68.7815 40.5243L51.2095 30.3932V10.1311L68.7815 20.2622V40.5243Z" fill="#438BE3"/>
</g>
<path d="M15.6343 73.9556L28.5775 66.4951L41.5208 73.9556V88.8822L28.5775 96.3427L15.6343 88.8822L15.64 73.9556H15.6343Z" fill="#DEF3FF"/>
<g style="mix-blend-mode:multiply" opacity="0.3">
<path d="M28.5775 96.3427L41.5208 88.8822V73.9556L28.5775 81.416V96.3427Z" fill="#438BE3"/>
</g>
<g style="mix-blend-mode:multiply" opacity="0.2">
<path d="M28.5775 96.3427L15.6343 88.8822L15.64 73.9556L28.5775 81.416V96.3427Z" fill="#438BE3"/>
</g>
<path d="M253.822 456.994C245.743 456.994 238.154 455.185 232.449 451.894L9.0045 323.045C3.20275 319.697 0 315.2 0 310.387C0 305.574 3.14525 301.146 8.8665 297.826L230.857 168.971C236.526 165.681 244.082 163.866 252.178 163.866C260.274 163.866 267.846 165.681 273.55 168.966L496.996 297.821C502.797 301.169 505.994 305.66 506 310.456C506.006 315.251 502.861 319.697 497.134 323.022L275.143 451.894C269.474 455.185 261.901 456.994 253.822 456.994ZM252.178 164.767C244.254 164.767 236.842 166.536 231.311 169.747L9.32075 298.602C3.887 301.755 0.897 305.942 0.90275 310.387C0.9085 314.832 3.9445 319.082 9.45875 322.264L232.904 451.113C238.47 454.324 245.899 456.093 253.822 456.093C261.746 456.093 269.157 454.324 274.689 451.113L496.679 322.258C502.113 319.105 505.103 314.918 505.097 310.473C505.091 306.028 502.055 301.778 496.541 298.602L273.125 169.747C267.53 166.536 260.101 164.767 252.178 164.767Z" fill="#438BE3"/>
<g style="mix-blend-mode:multiply" opacity="0.2">
<g style="mix-blend-mode:multiply">
<path d="M412.056 302.455C419.664 306.843 419.704 314.017 412.148 318.404L267.3 402.48C259.745 406.867 247.342 406.867 239.74 402.48L93.9434 318.404C86.3362 314.017 86.2959 306.843 93.8514 302.461L238.7 218.398C246.255 214.016 258.658 214.016 266.259 218.398L412.056 302.455Z" fill="#438BE3"/>
</g>
</g>
<path d="M412.148 237.287L267.3 321.362C259.745 325.75 247.342 325.75 239.74 321.362L93.9435 237.287C90.114 235.082 88.1935 232.164 88.1935 229.247C88.1935 236.242 88.1532 236.81 88.136 243.811C88.136 246.717 90.0392 249.629 93.886 251.852L239.677 335.927C247.284 340.309 259.687 340.309 267.243 335.927L412.091 251.846C415.84 249.669 417.72 246.804 417.726 243.932C417.726 236.937 417.772 236.362 417.789 229.367C417.784 232.239 415.903 235.105 412.148 237.287Z" fill="#438BE3"/>
<g style="mix-blend-mode:multiply" opacity="0.3">
<path d="M412.148 237.287L267.3 321.362C259.745 325.75 247.342 325.75 239.74 321.362L93.9435 237.287C90.114 235.082 88.1935 232.164 88.1935 229.247C88.1935 236.242 88.1532 236.81 88.136 243.811C88.136 246.717 90.0392 249.629 93.886 251.852L239.677 335.927C247.284 340.309 259.687 340.309 267.243 335.927L412.091 251.846C415.84 249.669 417.72 246.804 417.726 243.932C417.726 236.937 417.772 236.362 417.789 229.367C417.784 232.239 415.903 235.105 412.148 237.287Z" fill="#1C64BC"/>
</g>
<path d="M412.056 221.338C419.664 225.726 419.704 232.899 412.148 237.287L267.3 321.362C259.745 325.75 247.342 325.75 239.74 321.362L93.9434 237.287C86.3362 232.899 86.2959 225.726 93.8514 221.338L238.7 137.263C246.255 132.875 258.658 132.875 266.259 137.263L412.056 221.338Z" fill="#00557B"/>
<g style="mix-blend-mode:multiply" opacity="0.2">
<g style="mix-blend-mode:multiply">
<path d="M361.02 229.442C366.195 232.423 366.195 237.293 361.077 240.274L262.7 297.379C257.571 300.354 249.148 300.354 243.984 297.379L144.963 240.274C139.788 237.293 139.788 232.423 144.9 229.442L243.277 172.343C248.412 169.362 256.835 169.362 261.999 172.343L361.02 229.442Z" fill="#1C64BC"/>
</g>
</g>
<path d="M336.231 260.817L322.241 268.887V267.663L336.231 259.594V260.817Z" fill="#438BE3"/>
<path d="M322.241 267.663V268.886L301.432 256.757V255.533L322.241 267.663Z" fill="#438BE3"/>
<g style="mix-blend-mode:multiply" opacity="0.5">
<path d="M336.231 260.817L322.241 268.887V267.663L336.231 259.594V260.817Z" fill="#1C64BC"/>
</g>
<path d="M322.241 267.663V268.886L301.432 256.757V255.533L322.241 267.663Z" fill="#1C64BC"/>
<g style="mix-blend-mode:multiply" opacity="0.5">
<path d="M322.241 267.663V268.886L301.432 256.757V255.533L322.241 267.663Z" fill="#1C64BC"/>
</g>
<path d="M336.231 259.594L322.242 267.663L301.432 255.533L315.416 247.47L336.231 259.594Z" fill="#1C64BC"/>
<path d="M357.046 248.211L343.062 256.28V255.057L357.046 246.988V248.211Z" fill="#438BE3"/>
<path d="M343.062 255.057V256.28L322.247 244.15V242.927L343.062 255.057Z" fill="#438BE3"/>
<g style="mix-blend-mode:multiply" opacity="0.5">
<path d="M357.046 248.211L343.062 256.28V255.057L357.046 246.988V248.211Z" fill="#1C64BC"/>
</g>
<g style="mix-blend-mode:multiply" opacity="0.5">
<path d="M343.062 255.057V256.28L322.247 244.15V242.927L343.062 255.057Z" fill="#1C64BC"/>
</g>
<path d="M357.046 246.987L343.062 255.057L322.247 242.927L336.237 234.864L357.046 246.987Z" fill="#1C64BC"/>
<path d="M361.1 186.121L262.7 243.226C257.571 246.201 249.148 246.201 243.984 243.226L144.963 186.121C142.364 184.627 141.065 182.646 141.071 180.67C141.071 185.42 141.071 214.71 141.03 219.46C141.03 221.436 142.324 223.417 144.923 224.916L243.944 282.015C249.119 284.996 257.531 284.996 262.66 282.015L361.037 224.91C363.59 223.434 364.866 221.465 364.866 219.535C364.866 214.785 364.895 185.5 364.912 180.745C364.907 182.698 363.63 184.645 361.1 186.121Z" fill="#DEF3FF"/>
<g style="mix-blend-mode:multiply" opacity="0.2">
<path d="M361.1 186.121L262.7 243.226C257.571 246.201 249.148 246.201 243.984 243.226L144.963 186.121C142.364 184.627 141.065 182.646 141.071 180.67C141.071 185.42 141.071 214.71 141.03 219.46C141.03 221.436 142.324 223.417 144.923 224.916L243.944 282.015C249.119 284.996 257.531 284.996 262.66 282.015L361.037 224.91C363.59 223.434 364.866 221.465 364.866 219.535C364.866 214.785 364.895 185.5 364.912 180.745C364.907 182.698 363.63 184.645 361.1 186.121Z" fill="#438BE3"/>
</g>
<path d="M361.1 204.717L262.7 261.822C257.571 264.803 249.148 264.803 243.984 261.822L144.963 204.723C142.364 203.224 141.065 201.243 141.071 199.267C141.071 204.022 141.071 196.114 141.03 200.864C141.03 202.839 142.324 204.821 144.923 206.32L243.944 263.419C249.119 266.4 257.531 266.4 262.66 263.419L361.037 206.337C363.59 204.861 364.866 202.891 364.866 200.961C364.866 196.212 364.895 204.12 364.912 199.365C364.907 201.294 363.63 203.241 361.1 204.717Z" fill="#438BE3"/>
<path d="M361.02 175.323C366.195 178.298 366.195 183.174 361.077 186.149L262.7 243.226C257.571 246.201 249.148 246.201 243.984 243.226L144.963 186.121C139.788 183.146 139.788 178.27 144.9 175.295L243.277 118.19C248.412 115.215 256.835 115.215 261.999 118.19L361.02 175.323Z" fill="#DEF3FF"/>
<g style="mix-blend-mode:multiply" opacity="0.1">
<g style="mix-blend-mode:multiply">
<path d="M361.02 175.323C366.195 178.298 366.195 183.174 361.077 186.149L262.7 243.226C257.571 246.201 249.148 246.201 243.984 243.226L144.963 186.121C139.788 183.146 139.788 178.27 144.9 175.295L243.277 118.19C248.412 115.215 256.835 115.215 261.999 118.19L361.02 175.323Z" fill="#438BE3"/>
</g>
</g>
<path d="M358.093 174.663C363.118 177.535 363.141 182.302 358.15 185.202L262.441 240.756C257.445 243.628 249.251 243.628 244.225 240.756L147.89 185.202C142.864 182.302 142.841 177.558 147.832 174.663L243.541 119.109C248.532 116.209 256.726 116.209 261.751 119.109L358.093 174.663Z" fill="#DEF3FF"/>
<path d="M166.29 217.904C166.29 221.011 164.105 222.269 161.414 220.718C158.723 219.167 156.538 215.388 156.538 212.281C156.538 209.174 158.723 207.916 161.414 209.473C164.105 211.029 166.29 214.797 166.29 217.904Z" fill="#438BE3"/>
<path opacity="0.5" d="M165.186 217.249C165.186 219.65 163.501 220.626 161.414 219.426C160.316 218.71 159.402 217.746 158.746 216.611C158.091 215.477 157.713 214.204 157.642 212.896C157.642 210.489 159.327 209.513 161.414 210.719C162.513 211.434 163.428 212.398 164.083 213.533C164.739 214.668 165.117 215.941 165.186 217.249Z" fill="#1ED6FE"/>
<path d="M164.45 216.836C164.45 218.765 163.099 219.547 161.425 218.559C160.545 217.986 159.812 217.213 159.287 216.304C158.761 215.395 158.458 214.375 158.401 213.327C158.401 211.397 159.752 210.616 161.425 211.604C162.306 212.177 163.039 212.949 163.564 213.858C164.09 214.767 164.393 215.787 164.45 216.836Z" fill="#1ED6FE"/>
<path d="M162.989 216.003C162.989 217.002 162.282 217.41 161.414 216.91C160.957 216.611 160.576 216.209 160.302 215.736C160.028 215.263 159.87 214.733 159.839 214.188C159.839 213.183 160.546 212.775 161.414 213.28C161.874 213.577 162.257 213.978 162.531 214.452C162.805 214.925 162.962 215.457 162.989 216.003Z" fill="#85E9FE"/>
<path d="M180.826 226.22C180.826 229.327 178.647 230.585 175.95 229.034C173.253 227.484 171.074 223.704 171.074 220.597C171.074 217.49 173.259 216.233 175.95 217.789C178.641 219.345 180.826 223.119 180.826 226.22Z" fill="#438BE3"/>
<path opacity="0.5" d="M179.728 225.588C179.728 227.989 178.037 228.965 175.95 227.765C174.853 227.048 173.939 226.084 173.284 224.949C172.629 223.815 172.25 222.543 172.178 221.235C172.178 218.829 173.868 217.852 175.95 219.058C177.05 219.773 177.965 220.737 178.622 221.871C179.278 223.006 179.657 224.28 179.728 225.588Z" fill="#1ED6FE"/>
<path d="M178.98 225.152C178.98 227.082 177.623 227.863 175.95 226.875C175.07 226.301 174.337 225.529 173.812 224.62C173.286 223.711 172.983 222.691 172.926 221.643C172.926 219.713 174.283 218.932 175.95 219.92C176.831 220.493 177.565 221.265 178.092 222.174C178.618 223.083 178.923 224.103 178.98 225.152Z" fill="#1ED6FE"/>
<path d="M177.525 224.319C177.525 225.318 176.818 225.726 175.95 225.226C175.493 224.927 175.113 224.525 174.841 224.052C174.568 223.579 174.41 223.049 174.38 222.504C174.38 221.499 175.082 221.091 175.95 221.597C176.41 221.893 176.793 222.294 177.067 222.768C177.341 223.241 177.498 223.773 177.525 224.319Z" fill="#85E9FE"/>
<path d="M195.368 234.536C195.368 237.643 193.183 238.901 190.492 237.35C187.801 235.8 185.616 232.021 185.616 228.914C185.616 225.806 187.795 224.549 190.492 226.105C193.188 227.662 195.362 231.435 195.368 234.536Z" fill="#438BE3"/>
<path opacity="0.5" d="M194.264 233.904C194.264 236.305 192.573 237.281 190.492 236.081C189.393 235.366 188.478 234.402 187.822 233.267C187.165 232.133 186.786 230.859 186.714 229.551C186.714 227.145 188.404 226.168 190.492 227.374C191.59 228.09 192.504 229.054 193.159 230.189C193.815 231.324 194.193 232.597 194.264 233.904Z" fill="#1ED6FE"/>
<path d="M193.516 233.474C193.516 235.398 192.159 236.179 190.492 235.197C189.609 234.625 188.875 233.853 188.348 232.944C187.822 232.034 187.518 231.014 187.461 229.965C187.461 228.035 188.818 227.254 190.492 228.242C191.371 228.816 192.103 229.588 192.629 230.497C193.154 231.406 193.458 232.426 193.516 233.474Z" fill="#1ED6FE"/>
<path d="M192.05 232.635C192.05 233.635 191.349 234.042 190.48 233.543C190.023 233.244 189.642 232.842 189.368 232.369C189.095 231.896 188.936 231.366 188.905 230.82C188.905 229.815 189.612 229.413 190.48 229.913C190.939 230.21 191.321 230.612 191.594 231.085C191.867 231.558 192.023 232.09 192.05 232.635Z" fill="#85E9FE"/>
<path d="M361.1 137.602L262.7 194.707C257.571 197.688 249.148 197.688 243.984 194.707L144.963 137.608C142.364 136.109 141.065 134.127 141.071 132.152C141.071 136.907 141.071 166.192 141.03 170.941C141.03 172.923 142.324 174.898 144.923 176.397L243.944 233.497C249.119 236.477 257.531 236.477 262.66 233.497L361.037 176.397C363.59 174.916 364.866 172.951 364.866 171.016C364.866 166.266 364.895 136.982 364.912 132.226C364.907 134.179 363.63 136.126 361.1 137.602Z" fill="#DEF3FF"/>
<g style="mix-blend-mode:multiply" opacity="0.2">
<path d="M361.1 137.602L262.7 194.707C257.571 197.688 249.148 197.688 243.984 194.707L144.963 137.608C142.364 136.109 141.065 134.127 141.071 132.152C141.071 136.907 141.071 166.192 141.03 170.941C141.03 172.923 142.324 174.898 144.923 176.397L243.944 233.497C249.119 236.477 257.531 236.477 262.66 233.497L361.037 176.397C363.59 174.916 364.866 172.951 364.866 171.016C364.866 166.266 364.895 136.982 364.912 132.226C364.907 134.179 363.63 136.126 361.1 137.602Z" fill="#438BE3"/>
</g>
<path d="M361.1 156.204L262.7 213.304C257.571 216.284 249.148 216.284 243.984 213.304L144.963 156.204C142.364 154.705 141.065 152.724 141.071 150.748C141.071 155.504 141.071 147.595 141.03 152.345C141.03 154.321 142.324 156.302 144.923 157.801L243.944 214.9C249.119 217.881 257.531 217.881 262.66 214.9L361.037 157.801C363.59 156.319 364.866 154.355 364.866 152.42C364.866 147.67 364.895 155.578 364.912 150.823C364.907 152.776 363.63 154.723 361.1 156.204Z" fill="#438BE3"/>
<path d="M361.02 126.776C366.195 129.751 366.195 134.627 361.077 137.602L262.7 194.707C257.571 197.687 249.148 197.687 243.984 194.707L144.963 137.608C139.788 134.627 139.788 129.751 144.9 126.776L243.277 69.648C248.412 66.673 256.835 66.673 261.999 69.648L361.02 126.776Z" fill="#DEF3FF"/>
<g style="mix-blend-mode:multiply" opacity="0.1">
<g style="mix-blend-mode:multiply">
<path d="M361.02 126.776C366.195 129.751 366.195 134.627 361.077 137.602L262.7 194.707C257.571 197.687 249.148 197.687 243.984 194.707L144.963 137.608C139.788 134.627 139.788 129.751 144.9 126.776L243.277 69.648C248.412 66.673 256.835 66.673 261.999 69.648L361.02 126.776Z" fill="#438BE3"/>
</g>
</g>
<path d="M358.093 126.144C363.118 129.045 363.141 133.783 358.15 136.683L262.441 192.237C257.445 195.109 249.251 195.109 244.225 192.237L147.89 136.683C142.864 133.783 142.841 129.045 147.832 126.144L243.541 70.59C248.532 67.7184 256.726 67.7184 261.751 70.59L358.093 126.144Z" fill="#DEF3FF"/>
<g style="mix-blend-mode:multiply" opacity="0.2">
<g style="mix-blend-mode:multiply">
<path d="M194.304 389.873C197.639 391.797 197.656 394.945 194.344 396.863L130.87 433.706C127.564 435.63 122.124 435.63 118.795 433.706L54.9068 396.863C51.5776 394.945 51.5603 391.797 54.8665 389.879L118.341 353.036C121.653 351.112 127.087 351.112 130.416 353.036L194.304 389.873Z" fill="#438BE3"/>
</g>
</g>
<path d="M194.35 344.881L130.87 381.724C127.564 383.642 122.124 383.642 118.795 381.724L54.9068 344.881C53.2278 343.916 52.394 342.635 52.394 341.36C52.394 344.427 52.394 350.808 52.394 353.875C52.394 355.15 53.2278 356.431 54.9068 357.395L118.789 394.238C122.124 396.156 127.558 396.156 130.864 394.238L194.316 357.384C195.96 356.431 196.788 355.173 196.788 353.938C196.788 350.871 196.788 344.49 196.817 341.424C196.811 342.67 195.989 343.928 194.35 344.881Z" fill="#DEF3FF"/>
<g style="mix-blend-mode:multiply" opacity="0.2">
<path d="M194.35 344.881L130.87 381.724C127.564 383.642 122.124 383.642 118.795 381.724L54.9068 344.881C53.2278 343.916 52.394 342.635 52.394 341.36C52.394 344.427 52.394 350.808 52.394 353.875C52.394 355.15 53.2278 356.431 54.9068 357.395L118.789 394.238C122.124 396.156 127.558 396.156 130.864 394.238L194.316 357.384C195.96 356.431 196.788 355.173 196.788 353.938C196.788 350.871 196.788 344.49 196.817 341.424C196.811 342.67 195.989 343.928 194.35 344.881Z" fill="#438BE3"/>
</g>
<path d="M194.304 337.891C197.639 339.815 197.657 342.957 194.345 344.881L130.87 381.724C127.564 383.642 122.125 383.642 118.795 381.724L54.9072 344.881C51.5779 342.957 51.5607 339.815 54.8669 337.891L118.341 301.049C121.653 299.13 127.087 299.13 130.416 301.049L194.304 337.891Z" fill="#DEF3FF"/>
<g style="mix-blend-mode:multiply" opacity="0.1">
<g style="mix-blend-mode:multiply">
<path d="M194.304 337.891C197.639 339.815 197.657 342.957 194.345 344.881L130.87 381.724C127.564 383.642 122.125 383.642 118.795 381.724L54.9072 344.881C51.5779 342.957 51.5607 339.815 54.8669 337.891L118.341 301.049C121.653 299.13 127.087 299.13 130.416 301.049L194.304 337.891Z" fill="#438BE3"/>
</g>
</g>
<path d="M192.418 337.489C195.655 339.356 195.673 342.417 192.453 344.284L130.703 380.127C127.483 381.999 122.193 381.999 118.95 380.127L56.7928 344.284C53.5555 342.417 53.5383 339.356 56.7583 337.489L118.508 301.64C121.733 299.774 127.018 299.774 130.261 301.64L192.418 337.489Z" fill="#DEF3FF"/>
<g style="mix-blend-mode:multiply" opacity="0.2">
<g style="mix-blend-mode:multiply">
<path d="M451.53 389.873C454.86 391.797 454.877 394.945 451.571 396.863L388.125 433.706C384.813 435.63 379.379 435.63 376.05 433.706L312.133 396.863C308.798 394.945 308.781 391.797 312.093 389.879L375.567 353.036C378.873 351.112 384.313 351.112 387.642 353.036L451.53 389.873Z" fill="#438BE3"/>
</g>
</g>
<path d="M451.571 344.881L388.125 381.724C384.813 383.642 379.379 383.642 376.05 381.724L312.133 344.881C310.454 343.916 309.62 342.635 309.62 341.36C309.62 344.427 309.62 350.808 309.62 353.875C309.62 355.15 310.454 356.431 312.127 357.395L375.993 394.238C379.328 396.156 384.761 396.156 388.068 394.238L451.542 357.384C453.186 356.431 454.014 355.173 454.014 353.938C454.014 350.871 454.014 344.49 454.014 341.424C454.037 342.67 453.215 343.928 451.571 344.881Z" fill="#DEF3FF"/>
<g style="mix-blend-mode:multiply" opacity="0.2">
<path d="M451.571 344.881L388.125 381.724C384.813 383.642 379.379 383.642 376.05 381.724L312.133 344.881C310.454 343.916 309.62 342.635 309.62 341.36C309.62 344.427 309.62 350.808 309.62 353.875C309.62 355.15 310.454 356.431 312.127 357.395L375.993 394.238C379.328 396.156 384.761 396.156 388.068 394.238L451.542 357.384C453.186 356.431 454.014 355.173 454.014 353.938C454.014 350.871 454.014 344.49 454.014 341.424C454.037 342.67 453.215 343.928 451.571 344.881Z" fill="#438BE3"/>
</g>
<path d="M451.53 337.891C454.86 339.815 454.877 342.957 451.571 344.881L388.125 381.724C384.813 383.642 379.379 383.642 376.05 381.724L312.133 344.881C308.798 342.957 308.781 339.815 312.093 337.891L375.567 301.049C378.873 299.13 384.313 299.13 387.642 301.049L451.53 337.891Z" fill="#DEF3FF"/>
<g style="mix-blend-mode:multiply" opacity="0.1">
<g style="mix-blend-mode:multiply">
<path d="M451.53 337.891C454.86 339.815 454.877 342.957 451.571 344.881L388.125 381.724C384.813 383.642 379.379 383.642 376.05 381.724L312.133 344.881C308.798 342.957 308.781 339.815 312.093 337.891L375.567 301.049C378.873 299.13 384.313 299.13 387.642 301.049L451.53 337.891Z" fill="#438BE3"/>
</g>
</g>
<path d="M449.65 337.489C452.887 339.356 452.905 342.417 449.685 344.284L387.93 380.127C384.71 381.999 379.42 381.999 376.177 380.127L314.019 344.284C310.776 342.417 310.765 339.356 313.985 337.489L375.734 301.64C378.954 299.774 384.244 299.774 387.487 301.64L449.65 337.489Z" fill="#DEF3FF"/>
<path d="M166.29 169.385C166.29 172.492 164.105 173.75 161.414 172.199C158.723 170.649 156.538 166.869 156.538 163.762C156.538 160.655 158.723 159.398 161.414 160.954C164.105 162.51 166.29 166.284 166.29 169.385Z" fill="#438BE3"/>
<path opacity="0.5" d="M165.186 168.753C165.186 171.16 163.501 172.13 161.414 170.93C160.317 170.216 159.404 169.253 158.748 168.121C158.093 166.988 157.714 165.718 157.642 164.411C157.642 162.005 159.327 161.029 161.414 162.235C162.512 162.948 163.425 163.911 164.081 165.043C164.736 166.176 165.115 167.447 165.186 168.753Z" fill="#1ED6FE"/>
<path d="M164.45 168.323C164.45 170.247 163.099 171.028 161.425 170.045C160.544 169.473 159.81 168.701 159.285 167.792C158.759 166.883 158.456 165.862 158.401 164.813C158.401 162.884 159.752 162.103 161.425 163.09C162.306 163.664 163.038 164.436 163.564 165.345C164.089 166.254 164.393 167.274 164.45 168.323Z" fill="#1ED6FE"/>
<path d="M162.989 167.484C162.989 168.483 162.282 168.891 161.414 168.391C160.956 168.093 160.575 167.691 160.301 167.218C160.027 166.745 159.869 166.214 159.839 165.669C159.839 164.664 160.546 164.262 161.414 164.762C161.874 165.058 162.257 165.459 162.531 165.933C162.805 166.406 162.962 166.938 162.989 167.484Z" fill="#85E9FE"/>
<path d="M180.826 177.701C180.826 180.808 178.647 182.066 175.95 180.515C173.253 178.965 171.074 175.186 171.074 172.079C171.074 168.971 173.259 167.719 175.95 169.27C178.641 170.821 180.826 174.6 180.826 177.701Z" fill="#438BE3"/>
<path opacity="0.5" d="M179.728 177.046C179.728 179.453 178.037 180.424 175.95 179.223C174.852 178.507 173.938 177.543 173.282 176.409C172.627 175.274 172.249 174.001 172.178 172.693C172.178 170.287 173.868 169.316 175.95 170.516C177.05 171.231 177.965 172.195 178.622 173.329C179.278 174.464 179.657 175.738 179.728 177.046Z" fill="#1ED6FE"/>
<path d="M178.98 176.639C178.98 178.563 177.623 179.344 175.95 178.362C175.07 177.787 174.337 177.013 173.812 176.103C173.286 175.193 172.983 174.173 172.926 173.124C172.926 171.194 174.283 170.413 175.95 171.401C176.832 171.974 177.566 172.748 178.092 173.658C178.619 174.568 178.923 175.589 178.98 176.639Z" fill="#1ED6FE"/>
<path d="M177.525 175.8C177.525 176.799 176.818 177.207 175.95 176.707C175.491 176.41 175.109 176.009 174.836 175.535C174.564 175.062 174.407 174.531 174.38 173.985C174.38 172.98 175.082 172.578 175.95 173.078C176.41 173.374 176.793 173.776 177.067 174.249C177.341 174.722 177.498 175.254 177.525 175.8Z" fill="#85E9FE"/>
<path d="M195.368 186.017C195.368 189.124 193.183 190.382 190.492 188.831C187.801 187.281 185.616 183.502 185.616 180.395C185.616 177.288 187.795 176.036 190.492 177.586C193.188 179.137 195.362 182.916 195.368 186.017Z" fill="#438BE3"/>
<path opacity="0.5" d="M194.264 185.386C194.264 187.792 192.573 188.763 190.492 187.562C189.392 186.848 188.476 185.884 187.82 184.749C187.163 183.615 186.784 182.341 186.714 181.032C186.714 178.626 188.404 177.655 190.492 178.856C191.59 179.571 192.504 180.536 193.159 181.67C193.815 182.805 194.193 184.078 194.264 185.386Z" fill="#1ED6FE"/>
<path d="M193.516 184.955C193.516 186.879 192.159 187.66 190.492 186.678C189.61 186.104 188.876 185.331 188.349 184.421C187.823 183.511 187.519 182.489 187.461 181.44C187.461 179.516 188.818 178.735 190.492 179.717C191.372 180.292 192.105 181.065 192.63 181.975C193.156 182.885 193.459 183.906 193.516 184.955Z" fill="#1ED6FE"/>
<path d="M192.05 184.116C192.05 185.116 191.349 185.523 190.48 185.024C190.022 184.725 189.641 184.323 189.367 183.85C189.093 183.377 188.935 182.847 188.905 182.301C188.905 181.296 189.612 180.894 190.48 181.394C190.939 181.691 191.321 182.093 191.594 182.566C191.867 183.039 192.023 183.571 192.05 184.116Z" fill="#85E9FE"/>
<path d="M344.621 169.477L318.901 184.306V179.016L344.621 164.187V169.477Z" fill="#438BE3"/>
<path d="M359.95 180.797L339.75 192.444V189.802L359.95 178.155V180.797Z" fill="#DEF3FF"/>
<path d="M339.75 189.802V192.444L321.086 181.635V178.999L339.75 189.802Z" fill="#DEF3FF"/>
<g style="mix-blend-mode:multiply" opacity="0.2">
<path d="M359.95 180.797L339.75 192.444V189.802L359.95 178.155V180.797Z" fill="#438BE3"/>
</g>
<g style="mix-blend-mode:multiply" opacity="0.2">
<path d="M339.75 189.802V192.444L321.086 181.635V178.999L339.75 189.802Z" fill="#438BE3"/>
</g>
<path d="M359.95 178.155L339.75 189.802L321.086 178.999L341.28 167.346L359.95 178.155Z" fill="#DEF3FF"/>
<path d="M323.8 229.775L298.08 244.61V239.32L323.8 224.491V229.775Z" fill="#438BE3"/>
<path d="M339.129 241.095L318.929 252.742V250.1L339.129 238.453V241.095Z" fill="#DEF3FF"/>
<path d="M318.93 250.1V252.742L300.259 241.933V239.297L318.93 250.1Z" fill="#DEF3FF"/>
<g style="mix-blend-mode:multiply" opacity="0.2">
<path d="M339.129 241.095L318.929 252.742V250.1L339.129 238.453V241.095Z" fill="#438BE3"/>
</g>
<g style="mix-blend-mode:multiply" opacity="0.2">
<path d="M318.93 250.1V252.742L300.259 241.933V239.297L318.93 250.1Z" fill="#438BE3"/>
</g>
<path d="M339.129 238.453L318.93 250.1L300.259 239.297L320.459 227.65L339.129 238.453Z" fill="#DEF3FF"/>
<path d="M357.075 180.825L343.166 188.866V190.089C346.909 192.249 349.945 197.504 349.934 201.805L349.87 251.111L343.051 255.062V256.286C345.299 257.584 347.329 257.664 348.766 256.751L348.64 256.831C352.176 254.781 358.99 250.858 362.549 248.791C363.958 247.969 364.849 246.229 364.849 243.76L364.918 194.368C364.924 189.406 361.411 183.324 357.075 180.825Z" fill="#1C64BC"/>
<g style="mix-blend-mode:multiply" opacity="0.5">
<path d="M343.166 188.849V190.072C346.909 192.231 349.945 197.486 349.934 201.788L349.87 251.18C349.87 255.476 346.8 257.222 343.051 255.057V256.28C347.381 258.784 350.923 256.768 350.934 251.794L351.003 202.403C351.015 197.429 347.501 191.347 343.166 188.849Z" fill="#1C64BC"/>
</g>
<path d="M336.254 241.124L322.345 249.164V250.393C326.088 252.553 329.124 257.808 329.113 262.104L329.044 263.706L322.23 267.663V268.886C324.472 270.184 326.508 270.265 327.945 269.351C327.901 269.375 327.859 269.402 327.819 269.432C331.349 267.376 338.169 263.459 341.722 261.391C343.137 260.57 344.022 258.83 344.022 256.36L344.086 254.678C344.103 249.704 340.59 243.628 336.254 241.124Z" fill="#1C64BC"/>
<g style="mix-blend-mode:multiply" opacity="0.5">
<path d="M322.345 249.147V250.376C326.088 252.535 329.124 257.79 329.113 262.086L329.044 263.763C329.044 268.065 325.979 269.805 322.23 267.646V268.869C326.56 271.367 330.102 269.357 330.113 264.384L330.182 262.701C330.194 257.727 326.68 251.651 322.345 249.147Z" fill="#1C64BC"/>
</g>
<g style="mix-blend-mode:multiply" opacity="0.2">
<path d="M307.625 143.736L323.679 144.678L326.813 137.843L311.713 133.972C312.097 131.572 312.193 129.135 312.001 126.713L326.703 122.882L323.489 116.048L307.125 117.035C305.296 114.744 303.276 112.612 301.087 110.661L310.5 103.091L301.829 98.0886L288.523 103.688C285.102 102.235 281.468 101.046 277.788 99.8977L279.369 90.6109L267.542 88.7788L260.877 97.4855C256.737 97.2214 252.563 97.2214 248.331 97.2903L241.667 88.7788L229.873 90.6052L231.598 100.081C227.861 101.046 224.238 102.229 220.604 103.556L207.483 98.1001L198.858 103.097L208.564 110.804C206.234 112.697 204.056 114.769 202.049 117.001L185.995 116.059L182.861 122.894L197.932 126.776C197.549 129.176 197.452 131.613 197.645 134.035L182.942 137.866L186.156 144.701L202.549 143.736C204.369 146.033 206.383 148.17 208.57 150.122L199.186 157.692L207.857 162.688L221.156 157.094C224.664 158.54 228.243 159.805 231.88 160.885L230.299 170.155L242.127 171.992L248.802 163.263C252.931 163.533 257.105 163.533 261.337 163.464L268.002 171.981L279.812 170.143L278.035 160.667C281.79 159.713 285.43 158.513 289.047 157.221L302.168 162.677L310.793 157.675L301.087 149.973C303.428 148.07 305.614 145.984 307.625 143.736ZM283.866 147.084C267.961 156.319 242.069 156.308 226.055 147.084C210.042 137.86 209.955 122.876 225.854 113.641C241.753 104.406 267.668 104.406 283.676 113.641C299.684 122.876 299.747 137.872 283.837 147.107L283.866 147.084Z" fill="#FF6700"/>
</g>
<path d="M279.364 63.7212L279.324 77.258L277.742 86.539L277.783 73.008L279.364 63.7212Z" fill="#FF934A"/>
<path d="M231.61 73.1918L231.576 86.7286L229.828 77.2465L229.868 63.7097L231.61 73.1918Z" fill="#FF934A"/>
<path d="M310.494 76.1953L310.454 89.7321L301.053 97.3132L301.087 83.7764L310.494 76.1953Z" fill="#FF934A"/>
<path d="M208.581 83.9087L208.541 97.4455L198.841 89.7438L198.875 76.207L208.581 83.9087Z" fill="#FF934A"/>
<path d="M326.703 96.0039L326.663 109.541L311.96 113.366L312.001 99.8346L326.703 96.0039Z" fill="#FF934A"/>
<path d="M197.95 99.8863L197.915 113.423L182.839 109.541L182.879 96.0039L197.95 99.8863Z" fill="#FF934A"/>
<path d="M295.717 103.602L295.676 117.139C295.676 111.045 291.651 104.94 283.601 100.294C267.588 91.0588 241.684 91.0588 225.774 100.294C217.873 104.888 213.923 110.879 213.906 116.892L213.946 103.355C213.946 97.3419 217.914 91.346 225.814 86.7571C241.719 77.522 267.628 77.522 283.636 86.7571C291.709 91.4034 295.728 97.5085 295.717 103.602Z" fill="#FF934A"/>
<path d="M312.081 102.632L312.047 116.168C312.055 117.664 311.93 119.157 311.673 120.631L311.713 107.094C311.971 105.621 312.094 104.127 312.081 102.632Z" fill="#FF934A"/>
<path d="M197.541 117.891L197.582 104.354C197.582 105.285 197.61 106.215 197.662 107.151L197.622 120.688C197.57 119.741 197.536 118.81 197.541 117.891Z" fill="#FF934A"/>
<path d="M326.784 110.971L326.744 124.507L323.61 131.348L323.65 117.811L326.784 110.971Z" fill="#FF934A"/>
<path d="M323.65 117.811L323.61 131.348L307.556 130.406L307.596 116.863L323.65 117.811Z" fill="#D15500"/>
<path d="M186.174 117.811L186.133 131.348L182.925 124.507L182.959 110.976L186.174 117.811Z" fill="#FF934A"/>
<path d="M202.55 116.812L202.515 130.354L186.133 131.348L186.174 117.811L202.55 116.812Z" fill="#FF934A"/>
<path d="M307.625 116.863L307.585 130.4C305.58 132.634 303.404 134.708 301.076 136.603L301.11 123.066C303.442 121.173 305.62 119.099 307.625 116.863Z" fill="#FF934A"/>
<path d="M208.57 123.198L208.535 136.729C206.346 134.782 204.331 132.647 202.515 130.348L202.55 116.812C204.369 119.109 206.383 121.246 208.57 123.198Z" fill="#D15500"/>
<path d="M289.047 130.314L289.012 143.851C285.39 145.16 281.756 146.355 277.995 147.297L278.035 133.76C281.79 132.824 285.43 131.623 289.047 130.314Z" fill="#FF934A"/>
<path d="M231.88 133.972L231.84 147.509C228.203 146.435 224.624 145.176 221.116 143.736L221.156 130.205C224.664 131.643 228.244 132.9 231.88 133.972Z" fill="#D15500"/>
<path d="M302.168 135.776L302.128 149.307L289.012 143.851L289.047 130.314L302.168 135.776Z" fill="#D15500"/>
<path d="M310.788 130.768L310.747 144.304L302.128 149.307L302.168 135.776L310.788 130.768Z" fill="#FF934A"/>
<path d="M221.157 130.176L221.116 143.713L207.817 149.307L207.857 135.776L221.157 130.176Z" fill="#FF934A"/>
<path d="M207.857 135.776L207.817 149.307L199.146 144.304L199.186 130.768L207.857 135.776Z" fill="#FF934A"/>
<path d="M261.338 136.574L261.297 150.111C257.065 150.18 252.897 150.18 248.768 149.91L248.803 136.373C252.931 136.643 257.106 136.643 261.338 136.574Z" fill="#FF934A"/>
<path d="M268.002 145.097L267.961 158.628L261.297 150.111L261.337 136.574L268.002 145.097Z" fill="#D15500"/>
<path d="M279.812 143.253L279.772 156.79L267.962 158.628L268.002 145.097L279.812 143.253Z" fill="#FF934A"/>
<path d="M242.127 145.097L242.092 158.628L230.259 156.79L230.299 143.259L242.127 145.097Z" fill="#FF934A"/>
<path d="M307.625 116.863L323.679 117.811L326.784 110.999L311.713 107.117C312.097 104.719 312.193 102.284 312.001 99.8632L326.704 96.0268L323.489 89.1751L307.125 90.1629C305.296 87.8718 303.276 85.7392 301.087 83.788L310.5 76.1954L301.829 71.1931L288.524 76.7927C285.102 75.3397 281.468 74.1508 277.788 73.0022L279.37 63.7154L267.542 61.8833L260.878 70.59C256.738 70.3259 252.563 70.3258 248.331 70.4005L241.667 61.8833L229.874 63.7097L231.599 73.186C227.861 74.1508 224.239 75.3339 220.605 76.6319L207.483 71.1758L198.858 76.1724L208.564 83.8799C206.234 85.7727 204.056 87.8446 202.049 90.0768L186.013 89.1751L182.879 96.0095L197.95 99.892C197.566 102.292 197.469 104.729 197.662 107.151L182.959 110.999L186.174 117.84L202.55 116.84C204.369 119.138 206.383 121.274 208.57 123.227L199.186 130.796L207.857 135.799L221.157 130.205C224.664 131.65 228.243 132.915 231.88 133.995L230.299 143.282L242.127 145.12L248.803 136.402C252.931 136.672 257.106 136.672 261.338 136.603L268.002 145.12L279.812 143.282L278.036 133.806C281.79 132.852 285.43 131.652 289.047 130.36L302.168 135.816L310.793 130.813L301.082 123.06C303.423 121.17 305.611 119.098 307.625 116.863ZM283.837 120.189C267.933 129.424 242.041 129.412 226.027 120.189C210.013 110.965 209.927 95.9751 225.826 86.74C241.724 77.5049 267.64 77.5049 283.648 86.74C299.656 95.9751 299.748 110.999 283.837 120.189Z" fill="#FF6700"/>
<path d="M248.803 136.373L248.762 149.91L242.092 158.628L242.127 145.097L248.803 136.373Z" fill="#FF934A"/>
<path d="M162.76 212.655C163.285 211.423 163.506 210.084 163.404 208.749C163.243 207.893 161.736 205.832 162.691 205.407C163.645 204.982 164.991 207.043 164.991 207.043L165.945 205.114C165.863 204.921 165.828 204.711 165.844 204.502C165.86 204.293 165.926 204.091 166.037 203.913C166.185 203.649 166.423 203.446 166.707 203.341C166.992 203.235 167.305 203.235 167.59 203.339C168.13 203.492 168.689 203.575 169.251 203.586C168.722 203.161 167.578 201.943 167.998 200.944C168.418 199.945 170.873 201.564 172.782 202.92C174.691 204.275 174.633 205.734 174.938 207.319C175.243 208.904 176.416 209.283 174.334 212.792C172.253 216.301 169.734 218.817 167.285 221.614C166.859 222.108 166.175 222.872 165.341 223.791L160.822 218.225C162.397 217.284 163.496 216.64 163.496 216.64C163.496 216.64 162.208 213.93 162.76 212.655Z" fill="#FFCDA8"/>
<path d="M167.325 213.97C166.974 215.429 163.559 216.537 163.559 216.537H163.438C163.202 215.991 162.288 213.769 162.76 212.649C163.292 211.417 163.515 210.075 163.409 208.738C163.254 207.882 161.748 205.826 162.691 205.401C163.634 204.976 164.991 207.038 164.991 207.038L165.945 205.102C165.863 204.911 165.828 204.702 165.843 204.494C165.858 204.287 165.922 204.085 166.031 203.908C166.179 203.641 166.417 203.436 166.703 203.331C166.99 203.226 167.304 203.226 167.59 203.333C168.131 203.482 168.689 203.564 169.251 203.575C168.722 203.155 167.578 201.932 167.998 200.938C168.297 200.215 169.671 200.858 171.126 201.777C171.81 202.882 172.579 203.932 173.426 204.918L171.925 207.899L169.625 209.341C169.625 209.341 167.682 212.522 167.325 213.97Z" fill="#D9A782"/>
<path d="M178.503 190.153C178.595 190.006 178.629 189.83 178.597 189.659C178.565 189.489 178.47 189.337 178.33 189.234L151.438 171.665C151.366 171.622 151.286 171.594 151.203 171.582C151.12 171.571 151.035 171.577 150.954 171.6C150.874 171.622 150.798 171.661 150.733 171.714C150.668 171.767 150.614 171.832 150.575 171.906L137.879 193.248C137.784 193.394 137.749 193.571 137.781 193.742C137.814 193.913 137.91 194.065 138.052 194.167L164.944 211.741C165.016 211.784 165.096 211.811 165.179 211.822C165.262 211.833 165.347 211.827 165.427 211.804C165.508 211.782 165.583 211.743 165.648 211.691C165.713 211.639 165.767 211.574 165.807 211.5L178.503 190.153Z" fill="#438BE3"/>
<path d="M165.807 211.506L178.503 190.158C178.595 190.012 178.628 189.835 178.596 189.665C178.565 189.495 178.47 189.343 178.33 189.239L151.438 171.671L152.438 171.998C152.52 172.01 152.599 172.039 152.668 172.084L179.555 189.653C179.696 189.755 179.793 189.906 179.826 190.077C179.86 190.248 179.826 190.425 179.733 190.572L167.032 211.908C166.985 211.99 166.922 212.062 166.845 212.117C166.769 212.173 166.682 212.211 166.589 212.23L165.439 211.799C165.592 211.747 165.722 211.643 165.807 211.506Z" fill="#1C64BC"/>
<path d="M139.805 193.196L165.002 209.662L176.571 190.21L151.38 173.75L139.805 193.196Z" fill="#044CA4"/>
<path d="M143.33 194.299L146.32 196.252L146.441 196.045L143.451 194.092L143.33 194.299Z" fill="#508FD0"/>
<path d="M150.075 196.631L150.742 197.067L149.868 198.538L149.201 198.095L150.075 196.631Z" fill="#1872AF"/>
<path d="M150.04 194.678L150.713 195.12L149.011 197.975L148.344 197.533L150.04 194.678Z" fill="#03476E"/>
<path d="M158.878 197.515C158.479 197.716 158.03 197.797 157.586 197.75C157.142 197.703 156.72 197.53 156.371 197.251C155.445 196.556 153.933 194.793 152.984 194.914C152.036 195.034 150.96 195.241 150.96 195.241C150.96 195.241 152.547 196.895 152.11 197.705C151.673 198.515 151.162 200.002 151.162 200.002C151.162 200.002 153.927 201.329 153.594 202.719C153.26 204.109 150.305 203.293 149.276 202.719C149.276 202.719 148.126 204.74 147.436 204.545C146.746 204.35 147.096 201.421 147.096 201.421L146.401 201.449C146.401 201.449 143.894 203.282 142.784 203.528C141.674 203.775 141.634 203.098 141.91 202.615C142.186 202.133 143.347 200.622 143.347 200.622L138.207 199.474L132.106 203.287L128.282 197.326C128.282 197.326 136.332 193.88 137.988 193.811C139.644 193.742 145.82 191.812 147.137 191.766C149.2 191.78 151.26 191.916 153.306 192.174C154.606 192.45 159.85 196.884 158.878 197.515Z" fill="#FFCDA8"/>
<path d="M150.96 195.241C150.96 195.241 152.547 196.895 152.11 197.705C151.673 198.515 151.162 200.002 151.162 200.002C148.034 199.187 146.228 196.872 146.562 196.148C146.895 195.425 150.96 195.241 150.96 195.241Z" fill="#D9A782"/>
<path d="M146.947 201.168C147.43 201.249 147.889 201.432 148.296 201.704C148.702 201.977 149.046 202.332 149.304 202.747C149.304 202.747 148.154 204.769 147.464 204.574C146.774 204.378 147.125 201.449 147.125 201.449L146.429 201.478C146.429 201.478 143.922 203.31 142.813 203.557C141.703 203.804 141.663 203.126 141.939 202.644C142.215 202.162 143.376 200.651 143.376 200.651H143.278C143.911 200.594 145.13 200.755 146.947 201.168Z" fill="#D9A782"/>
<path d="M136.746 193.449C136.746 193.449 138.989 195.747 138.5 201.719L130.565 207.072L125.097 197.424L136.746 193.449Z" fill="#C7DEEB"/>
<path d="M88.504 187.43C88.9848 184.581 90.4373 181.986 92.6152 180.085C94.668 178.54 98.7735 182.87 99.2565 184.8L117.656 212.23C109.859 220.534 102.517 223.142 99.8775 222.315C96.209 221.166 90.505 212.276 89.5275 207.463C88.1887 200.874 87.8438 194.121 88.504 187.43Z" fill="#C7DEEB"/>
<path d="M96.3067 332.28C96.3067 332.28 95.6742 337.506 97.037 338.466C98.3997 339.425 101.188 339.666 102.787 338.466C104.385 337.265 105.909 333.584 108.359 332.906C110.808 332.228 116.805 329.276 117.3 325.796C117.794 322.316 111.389 321.937 107.577 323.24C103.764 324.544 96.3067 332.28 96.3067 332.28Z" fill="#044CA4"/>
<path d="M116.823 324.073C117.021 324.309 117.166 324.586 117.247 324.883C117.329 325.18 117.345 325.492 117.294 325.796C116.823 329.242 110.814 332.211 108.37 332.895C105.927 333.578 104.391 337.265 102.799 338.454C101.206 339.643 98.4228 339.425 97.0485 338.454C96.7284 338.168 96.512 337.784 96.4333 337.363C96.4304 337.418 96.4304 337.474 96.4333 337.529C96.4045 338.626 96.5368 339.614 97.0485 339.976C98.417 340.947 101.2 341.171 102.799 339.976C103.793 339.229 104.765 337.512 105.955 336.157V335.559C106.63 334.857 107.456 334.317 108.37 333.98C110.768 333.153 117.369 329.805 117.841 326.336C117.904 325.693 117.197 324.452 116.823 324.073Z" fill="#044CA4"/>
<path d="M151.708 343.56C150.788 341.866 149 341.837 143.48 341.837C137.96 341.837 135.763 342.75 133.814 341.423L121.509 344.961C121.509 344.961 120.324 351.359 121.227 352.743C122.13 354.127 125.252 355.041 129.225 354.127C133.199 353.214 137.086 353.226 140.49 353.226C143.894 353.226 155.25 350.124 151.708 343.56Z" fill="#044CA4"/>
<path d="M152.375 344.324C152.263 344.108 152.116 343.914 151.938 343.749C154.658 349.958 143.802 352.887 140.478 352.887C137.155 352.887 133.181 352.887 129.214 353.783C125.246 354.679 122.118 353.783 121.216 352.399C121.091 352.172 121.009 351.925 120.974 351.669C120.957 351.95 120.957 352.232 120.974 352.513C120.883 353.14 120.967 353.78 121.216 354.363C122.607 356.505 124.763 356.769 129.214 355.753C130.203 355.529 131.186 355.362 132.158 355.236V354.346C134.919 354.029 137.699 353.899 140.478 353.955C143.899 353.938 155.94 350.877 152.375 344.324Z" fill="#044CA4"/>
<path d="M101.775 233.255L100.7 233.445C100.7 233.445 97.8535 238.126 97.5545 242.266C97.2555 246.407 98.0777 259.025 98.371 259.243C98.6642 259.462 97.6005 285.823 97.5257 287.23C97.451 288.637 94.4552 297.051 94.0757 305.103C93.6962 313.155 95.45 335.445 95.45 335.445C95.45 335.445 96.4102 337.954 100.843 335.445C105.277 332.935 110.204 325.457 110.204 325.457C110.204 325.457 110.325 314.62 110.814 309.278C111.262 304.391 113.534 293.737 113.534 293.737C113.534 293.737 119.192 273.636 120.894 258.434C122.596 243.231 120.75 241.371 120.75 241.371L101.775 233.255Z" fill="#1C64BC"/>
<path d="M140.495 277.409C140.559 269.087 137.367 244.811 134.078 240.153L110.889 238.556C110.889 238.556 107.968 251.731 111.952 262.787C115.937 273.843 120.175 295.242 120.175 297.717C120.175 300.193 116.294 312.587 117.087 318.33C117.881 324.073 120.175 348.832 120.175 348.832C120.175 348.832 131.594 350.159 138.575 342.555C138.575 342.555 135.125 326.813 135.74 316.291C136.355 305.769 140.449 282.911 140.495 277.409Z" fill="#438BE3"/>
<path d="M102.775 177.673C103.769 175.693 104.307 173.517 104.351 171.303C104.236 166.881 100.521 164.986 100.769 158.869C101.016 152.753 104.512 147.63 107.996 146.234C111.481 144.839 119.6 144.46 123.205 150.053C126.81 155.647 125.948 157.554 125.396 158.599C124.844 159.645 125.591 160.983 125.695 161.775C125.798 162.568 125.2 168.88 123.625 171.298C122.475 173.049 119.772 172.067 119.324 173.061C118.875 174.054 118.68 178.626 120.52 181.957C120.52 181.957 113.907 187.27 106.593 185.633C99.2794 183.996 102.775 177.673 102.775 177.673Z" fill="#FFCDA8"/>
<path d="M119.324 173.084C119.606 172.463 120.767 172.613 121.883 172.383C120.917 171.341 120.071 170.195 119.358 168.966C119.358 168.966 117.633 165.52 119.847 164.032L119.686 163.533C118.116 164.452 116.811 167.082 116.587 168.518C116.363 169.954 115.644 171.286 113.419 171.998C113.861 175.444 114.523 181.09 114.638 185.07C116.75 184.357 118.735 183.314 120.52 181.98C118.68 178.649 118.881 174.077 119.324 173.084Z" fill="#D9A782"/>
<path d="M120.353 145.034C116.604 142.983 108.928 143.719 105.047 146.711C99.7164 150.817 98.0432 159.495 102.2 165.279C103.08 167.088 104.086 168.621 104.305 170.7C106.071 172.105 108.322 172.757 110.567 172.515C115.075 172.113 116.282 170.534 116.575 168.495C116.869 166.456 119.364 162.068 121.693 163.441L122.619 162.51C122.619 162.51 122.665 158.955 123.268 158.318C123.728 157.83 123.136 154.682 123.843 152.758C124.272 152.526 124.622 152.172 124.85 151.742C125.925 149.818 124.102 147.084 120.353 145.034Z" fill="#5A5A5A"/>
<g style="mix-blend-mode:multiply" opacity="0.3">
<path d="M116.587 168.518C116.892 166.491 119.376 162.091 121.704 163.464L122.63 162.533C122.645 161.413 122.748 160.295 122.941 159.191C120.784 161.017 116.616 164.434 114.408 165.508C112.073 166.657 106.231 166.232 102.2 165.279C103.092 167.088 104.098 168.621 104.316 170.706C106.083 172.111 108.333 172.763 110.578 172.521C115.086 172.119 116.294 170.54 116.587 168.518Z" fill="#5A5A5A"/>
</g>
<path d="M103.759 173.824C106.984 177.046 112.102 177.305 114.367 177.54C115.517 177.661 118.668 178.545 119.755 179.263L121.198 183.1C121.198 183.1 110.273 183.703 105.622 181.991C100.97 180.28 99.9349 177 99.9349 177L103.759 173.824Z" fill="#438BE3"/>
<path d="M90.9822 196.183C89.5792 186 92.0287 180.734 92.6152 180.102C93.2017 179.47 99.2565 177.23 99.2565 177.23L100.757 176.978L123.55 183.387L128.3 187.453C128.3 187.453 134.159 229.999 135.384 235.851C136.608 241.704 141.392 264.464 141.392 264.464C141.392 264.464 139.725 272.614 113.942 272.614C112.424 272.614 111.015 272.551 109.698 272.447L108.428 250.353L107.237 272.177C98.5837 271.029 94.9785 267.973 94.9785 267.973C94.9785 267.973 95.2487 247.378 96.2492 241.348C97.2497 235.317 99.1242 223.205 98.2387 218.817C97.3532 214.429 92.3852 206.366 90.9822 196.183Z" fill="#E6F6FF"/>
<path d="M169.654 215.733C169.654 215.733 167.239 213.556 168.113 210.88C168.987 208.203 169.723 207.003 169.441 206.113C169.159 205.223 168.216 200.91 170.016 200.628C171.816 200.347 171.931 202.977 172.057 204.258C172.177 205.591 172.59 206.881 173.265 208.037C173.903 209.036 174.507 210.736 173.472 213.206C172.437 215.675 171.091 216.749 169.654 215.733Z" fill="#FFCDA8"/>
<path d="M102.2 174.301C105.593 178.069 111.975 178.459 115.425 179.286C116.765 179.602 119.864 180.291 121.221 181.009L123.556 183.393C123.556 183.393 111.653 185.202 106.415 183.393C103.325 182.34 100.762 180.134 99.2622 177.236L102.2 174.301Z" fill="#DEF3FF"/>
<path d="M143.175 220.54C147.631 218.742 162.369 213.688 162.369 213.688C165.065 214.148 167.371 216.164 167.584 218.283C167.871 221.04 165.652 224.801 165.652 224.801C165.652 224.801 153.922 228.586 148.54 231.797C143.158 235.007 140.616 233.991 138.61 232.79C135.7 231.033 137.845 222.688 143.175 220.54Z" fill="#E6F6FF"/>
<path d="M143.175 220.54C147.632 218.742 162.369 213.688 162.369 213.688C163.362 213.859 164.309 214.233 165.152 214.785L164.864 215.52C164.864 215.52 146.252 222.768 138.414 232.647C135.798 230.631 138 222.636 143.175 220.54Z" fill="#C7DEEB"/>
<path d="M131.255 208.571C132.905 220.19 134.751 232.859 135.384 235.863C136.614 241.715 141.392 264.476 141.392 264.476C141.392 264.476 140.524 268.605 130.709 270.983C130.646 265.377 132.382 253.564 131.169 247.918C129.444 239.975 125.287 231.464 124.188 222.251C123.09 213.039 120.951 199.445 120.951 199.445C124.704 202.109 128.158 205.169 131.255 208.571Z" fill="#C7DEEB"/>
<path d="M125.81 186.603C125.81 186.603 132.618 189.015 135.039 193.863C137.46 198.71 138.443 207.072 139.323 209.163C140.202 211.253 144.843 220.649 146.188 222.602C147.534 224.555 148.488 226.99 146.913 229.379C145.337 231.768 143.29 235.174 139.064 233.939C134.838 232.704 128.081 220.804 125.81 215.756C123.539 210.708 120.934 203.396 120.923 198.653C120.911 193.909 124.056 187.683 125.81 186.603Z" fill="#E6F6FF"/>
<path d="M384.175 173.819C383.174 173.377 380.15 170.465 379.143 168.937C377.625 166.986 375.804 165.289 373.75 163.912C372.502 163.246 369.196 162.08 368.972 162.499C368.842 162.738 368.768 163.003 368.753 163.274C368.753 163.274 365.665 162.579 365.085 162.648C364.504 162.717 363.935 163.05 364.084 163.332C364.13 163.395 364.155 163.472 364.155 163.55C364.155 163.628 364.13 163.705 364.084 163.768C364.084 163.768 362.273 163.194 362.187 163.636C362.1 164.078 361.882 164.968 362.296 165.468C362.71 165.968 367.471 168.495 368.747 169.27C370.024 170.045 372.105 172.653 371.916 173.13C371.726 173.606 372.054 173.704 370.495 173.434C368.937 173.164 367.523 172.435 366.16 172.682C364.797 172.929 364.216 173.79 364.435 174.405C364.653 175.019 366.321 174.847 367.517 175.237C368.713 175.628 370.714 176.656 372.117 177.127C373.52 177.598 377.292 177.54 378.442 177.874C379.486 178.219 380.507 178.627 381.501 179.097L384.175 173.819Z" fill="#FFCDA8"/>
<path d="M382.887 172.297L379.638 178.264L381.259 179.665C381.742 180.499 382.286 181.296 382.887 182.049C383.801 183.198 390.471 187.792 390.471 187.792L397.526 179.292C397.526 179.292 386.325 174.181 385.411 174.123L382.887 172.297Z" fill="#E6F6FF"/>
<path d="M381.122 175.542L383.422 176.805L384.462 175.358L383.933 176.581L386.619 178.511L383.744 177.293C383.744 177.293 389.626 181.71 392.024 182.181C392.851 182.35 393.635 182.691 394.324 183.18L390.488 187.803C390.488 187.803 383.818 183.174 382.904 182.06C382.303 181.307 381.759 180.511 381.277 179.677L379.655 178.275L381.122 175.542Z" fill="#C7DEEB"/>
<path d="M391 150.053C388.654 151.282 386.912 154.648 386.325 157.353C385.739 160.058 386.325 160.742 386.325 160.742C386.325 160.742 384.439 162.378 384.652 162.907C384.865 163.435 386.521 164.687 386.521 164.687C386.356 165.528 386.301 166.388 386.36 167.243C386.521 168.053 387.17 169.81 387.027 170.689C386.883 171.567 387.055 173.17 387.97 173.624C388.884 174.077 392.903 173.773 393.283 174.979C393.662 176.185 393.668 182.416 393.668 182.416C393.668 182.416 399.803 186.483 405.254 183.795C410.705 181.107 408.652 175.364 408.652 175.364C408.652 175.364 406.996 172.343 407.727 170.27C408.457 168.196 411.671 164.48 411.062 159.254C410.452 154.028 407.675 151.202 402.724 149.479C397.773 147.756 394.45 148.216 391 150.053Z" fill="#FFCDA8"/>
<path d="M393.265 174.985C393.081 174.41 392.006 174.163 390.856 174.031C392.685 173.589 394.962 172.774 395.105 171.481C395.358 169.299 396.008 165.635 396.008 165.635L399.924 167.427C399.924 167.427 400.2 179.246 402.092 184.656C397.676 185.07 393.651 182.405 393.651 182.405C393.651 182.405 393.651 176.197 393.265 174.985Z" fill="#D9A782"/>
<path d="M394.209 168.489C394.312 167.093 394.784 166.307 396.089 166.812C397.394 167.317 398.101 169.638 396.928 171.171C395.755 172.705 393.823 174.054 394.209 168.489Z" fill="#FFCDA8"/>
<path d="M395.841 147.136C402.293 147.377 410.027 149.852 411.366 157.273C412.706 164.693 409.538 166.709 409.538 166.709C408.802 168.208 408.026 169.414 407.709 170.304C407.556 170.782 407.498 171.285 407.537 171.786C406.23 172.397 404.811 172.731 403.368 172.768C400.907 172.63 400.821 173.216 399.504 170.809C398.187 168.403 396.842 165.916 394.939 166.169C393.035 166.421 391.747 166.892 391.489 165.996C391.255 165.364 391.188 164.681 391.293 164.015C391.374 163.09 389.919 161.999 389.499 160.569C389.079 159.139 390.845 157.629 389.499 156.262C388.619 155.36 387.849 154.872 387.458 154.148C387.186 153.942 386.966 153.674 386.817 153.366C386.668 153.059 386.594 152.721 386.601 152.379C386.647 151.202 389.396 146.895 395.841 147.136Z" fill="black"/>
<g style="mix-blend-mode:multiply" opacity="0.3">
<path d="M394.939 166.134C393.036 166.387 391.748 166.858 391.489 165.962C391.255 165.329 391.188 164.647 391.293 163.981C391.374 163.056 389.919 161.965 389.499 160.535C389.405 160.126 389.421 159.7 389.545 159.3C391.27 162.068 401.235 166.829 404.57 167.22C406.242 167.346 407.923 167.169 409.532 166.697C408.796 168.196 408.02 169.402 407.704 170.292C407.55 170.77 407.492 171.274 407.531 171.774C406.224 172.385 404.805 172.719 403.363 172.756C400.902 172.618 400.815 173.204 399.499 170.798C398.182 168.391 396.842 165.887 394.939 166.134Z" fill="#412999"/>
</g>
<path d="M416.369 332.114C416.369 332.114 416.996 337.334 415.633 338.299C414.27 339.264 411.481 339.494 409.883 338.299C408.284 337.104 406.755 333.412 404.305 332.734C401.856 332.056 395.859 329.104 395.381 325.635C394.904 322.166 401.298 321.776 405.105 323.085C408.911 324.395 416.369 332.114 416.369 332.114Z" fill="#044CA4"/>
<path d="M395.853 323.906C395.656 324.143 395.512 324.42 395.431 324.717C395.349 325.014 395.333 325.325 395.382 325.629C395.859 329.075 401.868 332.045 404.306 332.728C406.744 333.412 408.285 337.099 409.883 338.293C411.482 339.488 414.259 339.258 415.633 338.293C415.956 338.006 416.174 337.621 416.254 337.196C416.254 337.254 416.254 337.311 416.254 337.363C416.289 338.46 416.151 339.448 415.639 339.815C414.276 340.78 411.487 341.01 409.889 339.815C408.888 339.069 407.917 337.351 406.732 335.99V335.358C406.055 334.655 405.227 334.113 404.311 333.773C401.919 332.946 395.318 329.598 394.847 326.135C394.766 325.509 395.474 324.263 395.853 323.906Z" fill="#044CA4"/>
<path d="M360.968 343.376C361.882 341.653 363.676 341.653 369.19 341.653C374.705 341.653 376.913 342.56 378.862 341.24L391.167 344.777C391.167 344.777 392.346 351.17 391.443 352.554C390.54 353.938 387.418 354.851 383.444 353.944C379.471 353.036 375.59 353.042 372.18 353.042C368.771 353.042 357.414 349.918 360.968 343.376Z" fill="#044CA4"/>
<path d="M360.289 344.134C360.4 343.919 360.548 343.724 360.726 343.56C358.001 349.774 368.862 352.697 372.18 352.697C375.59 352.697 379.483 352.697 383.444 353.599C387.406 354.501 390.54 353.599 391.443 352.209C391.57 351.986 391.654 351.74 391.69 351.485C391.707 351.765 391.707 352.045 391.69 352.324C391.777 352.953 391.691 353.594 391.443 354.179C390.051 356.316 387.895 356.585 383.444 355.569C382.455 355.345 381.478 355.173 380.5 355.046V354.156C377.739 353.844 374.959 353.716 372.18 353.771C368.776 353.771 356.736 350.693 360.289 344.134Z" fill="#044CA4"/>
<path d="M410.872 233.066L411.953 233.255C411.953 233.255 414.794 237.942 415.093 242.077C415.392 246.212 414.569 258.836 414.276 259.06C413.983 259.284 415.052 285.639 415.121 287.047C415.19 288.454 418.198 296.867 418.571 304.914C418.945 312.96 417.243 335.255 417.243 335.255C417.243 335.255 416.283 337.765 411.844 335.255C407.405 332.745 402.5 325.268 402.5 325.268C402.5 325.268 402.379 314.43 401.885 309.095C401.436 304.202 399.165 293.548 399.165 293.548C399.165 293.548 393.507 273.447 391.811 258.244C390.114 243.042 391.972 241.187 391.972 241.187L410.872 233.066Z" fill="#1C64BC"/>
<path d="M372.18 277.226C372.111 268.898 375.303 244.627 378.597 239.964L401.781 238.367C401.781 238.367 404.702 251.542 400.718 262.603C396.733 273.665 392.484 295.053 392.484 297.528C392.484 300.003 396.376 312.386 395.583 318.135C394.789 323.884 392.484 348.648 392.484 348.648C392.484 348.648 381.064 349.975 374.084 342.365C374.084 342.365 377.534 326.623 376.913 316.102C376.292 305.58 372.226 282.722 372.18 277.226Z" fill="#438BE3"/>
<path d="M408.917 173.635C405.686 176.863 400.574 177.115 398.308 177.351C397.158 177.477 394.002 178.362 392.921 179.074L391.472 182.91C391.472 182.91 402.397 183.513 407.048 181.808C411.7 180.102 412.741 176.811 412.741 176.811L408.917 173.635Z" fill="#438BE3"/>
<path d="M421.694 195.999C423.097 185.811 420.647 180.544 420.055 179.918C419.463 179.292 413.425 177.047 413.425 177.047L411.924 176.788L389.137 183.198L384.388 187.264C384.388 187.264 378.528 229.815 377.298 235.668C376.067 241.52 371.295 264.275 371.295 264.275C371.295 264.275 372.985 272.413 398.74 272.413C400.263 272.413 401.672 272.35 402.989 272.246L404.254 250.152L405.45 271.976C414.075 270.828 417.709 267.778 417.709 267.778C417.709 267.778 417.433 247.177 416.438 241.152C415.443 235.128 413.563 223.004 414.443 218.616C415.323 214.228 420.291 206.176 421.694 195.999Z" fill="#E6F6FF"/>
<path d="M410.475 174.112C407.077 177.885 400.7 178.27 397.25 179.097C395.911 179.418 392.817 180.102 391.454 180.82L389.154 183.203C389.154 183.203 401.057 185.012 406.289 183.203C409.373 182.146 411.93 179.94 413.425 177.046L410.475 174.112Z" fill="#DEF3FF"/>
<path d="M381.42 208.387C379.77 220.006 377.919 232.675 377.286 235.679C376.056 241.532 371.283 264.286 371.283 264.286C371.283 264.286 372.146 268.416 381.967 270.793C382.024 265.188 380.288 253.38 381.501 247.728C383.226 239.786 387.383 231.28 388.481 222.062C389.58 212.844 391.724 199.267 391.724 199.267C387.972 201.929 384.517 204.986 381.42 208.387Z" fill="#C7DEEB"/>
<path d="M348.669 159.288C349.589 159.587 352.165 162.395 352.636 163.423C353.108 164.451 354.81 169.023 354.982 170.89C355.172 172.851 355.054 174.829 354.631 176.753C354.318 177.716 354.112 178.71 354.016 179.717C354.226 180.758 354.491 181.788 354.81 182.801L347.674 184.352C347.674 184.352 347.099 180.452 346.323 179.838C345.546 179.223 343.971 176.61 343.971 176.61C343.971 176.61 343.563 176.461 342.884 175.145C342.206 173.83 341.297 171.125 341.567 170.683C341.838 170.241 343.062 169.661 343.735 169.569C344.11 169.534 344.467 169.392 344.764 169.161C344.847 168.879 344.986 168.617 345.173 168.39C345.36 168.163 345.59 167.976 345.851 167.84C345.851 167.84 345.822 166.054 346.76 165.755C347.697 165.457 350.578 166.904 350.578 166.904C350.578 166.904 350.169 164.555 349.726 163.912C349.284 163.268 347.202 161.184 347.174 160.127C347.145 159.07 347.496 158.904 348.669 159.288Z" fill="#FFCDA8"/>
<path d="M343.327 173.894C343.545 174.52 343.821 175.714 344.034 176.696L343.971 176.593C343.971 176.593 343.562 176.444 342.884 175.128C342.557 174.456 342.272 173.763 342.033 173.055C342.499 172.653 342.913 172.722 343.327 173.894Z" fill="#D9A782"/>
<path d="M354.407 179.298L346.524 180.814L347.099 184.863C347.099 184.863 347.565 189.027 347.887 190.606C348.209 192.186 354.068 212.93 357.662 213.774C361.255 214.619 379.425 207.865 385.549 205.125C391.673 202.386 395.025 196.976 394.835 192.863C394.646 188.751 389.557 184.949 383.335 188.43C377.114 191.91 373.934 195.207 372.14 196.304C370.346 197.4 362.94 200.249 362.94 200.249C362.94 200.249 359.134 192.438 358.288 189.59C357.488 187.225 356.518 184.922 355.385 182.698L354.407 179.298Z" fill="#E6F6FF"/>
<path d="M347.087 184.863L346.512 180.814L349.088 180.32C349.324 181.572 349.991 184.794 349.991 184.794L353.211 184.065L351.854 184.794V187.275L351.279 184.903L349.491 185.598C349.491 185.598 354.424 203.402 356.764 206.733C358.219 208.829 360.134 211.603 361.313 213.436C359.634 213.786 358.328 213.924 357.61 213.751C354.016 212.907 348.157 192.14 347.835 190.583C347.513 189.027 347.087 184.863 347.087 184.863Z" fill="#C7DEEB"/>
</svg>
